<svg id="Layer_1" data-name="Layer 1" xmlns="http://www.w3.org/2000/svg" xmlns:xlink="http://www.w3.org/1999/xlink" viewBox="0 0 511.97 529.61"><defs><style>.cls-1{fill:#fec165;}.cls-2{fill:#f3f0f3;}.cls-3{fill:#e2dee2;}.cls-4{fill:#fe646f;}.cls-5{fill:#fd4755;}.cls-6{isolation:isolate;}</style></defs><title>MemeTeca</title><path class="cls-1" d="M288.39,330.85,272.24,322a5.24,5.24,0,0,1-2.07-2.08l-8.83-16.14a5.22,5.22,0,0,0-9.16,0l-8.83,16.14a5.2,5.2,0,0,1-2.08,2.08l-16.14,8.83a5.22,5.22,0,0,0,0,9.16l16.14,8.83a5.24,5.24,0,0,1,2.08,2.07l8.83,16.15a5.22,5.22,0,0,0,9.16,0l8.83-16.15a5.28,5.28,0,0,1,2.07-2.07L288.39,340a5.22,5.22,0,0,0,0-9.16Z" transform="translate(0)"/><path class="cls-1" d="M472.74,81.73,456,72.61a5.3,5.3,0,0,1-2.15-2.15l-9.13-16.73a5.41,5.41,0,0,0-9.49,0l-9.14,16.72a5.42,5.42,0,0,1-2.15,2.15l-16.73,9.13a5.41,5.41,0,0,0,0,9.49l16.73,9.14a5.55,5.55,0,0,1,2.15,2.15l9.14,16.73a5.41,5.41,0,0,0,9.49,0l9.15-16.73a5.43,5.43,0,0,1,2.13-2.12l16.72-9.14a5.41,5.41,0,0,0,2.2-7.33A5.35,5.35,0,0,0,472.74,81.73Z" transform="translate(0)"/><path class="cls-1" d="M101.75,203.73l-16.16-8.84a5.28,5.28,0,0,1-2.07-2.07l-8.84-16.16a5.22,5.22,0,0,0-9.16,0l-8.84,16.16a5.18,5.18,0,0,1-2.08,2.07l-16.15,8.84a5.21,5.21,0,0,0,0,9.16l16.15,8.84a5.2,5.2,0,0,1,2.08,2.08L65.52,240a5.21,5.21,0,0,0,9.16,0l8.84-16.15a5.24,5.24,0,0,1,2.07-2.08l16.16-8.84a5.22,5.22,0,0,0,0-9.16Z" transform="translate(0)"/><path class="cls-2" d="M27.94,428.14,41,382.43a4,4,0,0,1,4.93-2.7L256,437.86l-18.86,45.45Z" transform="translate(0)"/><path class="cls-3" d="M229.1,430.41l-19,45.77,27,7.13L256,437.86Z" transform="translate(0)"/><path class="cls-2" d="M484.06,428.14,471,382.43a4,4,0,0,0-4.92-2.75L256,437.86l18.86,45.45Z" transform="translate(0)"/><path class="cls-3" d="M456.84,435.32l27.22-7.18L471,382.43a4,4,0,0,0-4.92-2.75l-23.92,6.62Z" transform="translate(0)"/><path class="cls-3" d="M273,478.92l1.82,4.39,43.31-11.42Z" transform="translate(0)"/><path class="cls-4" d="M504,425.51a15,15,0,0,0-18.26-10.79h0L277.3,468A15,15,0,0,0,266,482.46a10,10,0,1,1-20,0A15,15,0,0,0,234.71,468L26.3,414.73a15,15,0,0,0-7.48,29l199,50.84a40.14,40.14,0,0,0,76.36,0l199-50.84A14.92,14.92,0,0,0,504,425.65.57.57,0,0,1,504,425.51Z" transform="translate(0)"/><path class="cls-5" d="M504,425.51a15,15,0,0,0-18.26-10.79h0l-25.95,6.63c7.37-.48,15.17,4.48,17,11.61a14.9,14.9,0,0,1-7.15,16.76l23.58-6A14.92,14.92,0,0,0,504,425.65.57.57,0,0,1,504,425.51Z" transform="translate(0)"/><path d="M276.43,315.73l-8.51-15.56c-4.66-8.76-17.67-8.76-22.32,0l-8.51,15.56-15.56,8.51c-8.76,4.65-8.75,17.66,0,22.31l15.56,8.52,8.51,15.56c4.66,8.75,17.67,8.75,22.32,0l8.51-15.56L292,346.58c8.76-4.65,8.75-17.66,0-22.31Zm-7.79,26.5a12.78,12.78,0,0,0-5.05,5l-6.83,12.49-6.83-12.49a12.8,12.8,0,0,0-5.06-5l-12.49-6.83,12.5-6.84a12.78,12.78,0,0,0,5.05-5.05L256.76,311l6.83,12.49a12.8,12.8,0,0,0,5.05,5.06l12.49,6.83Z" transform="translate(0)"/><path d="M403.61,97.82l16.19,8.91,8.85,16.19c4.72,8.88,17.92,8.88,22.64,0l8.86-16.19,16.19-8.86c8.88-4.72,8.88-17.92,0-22.64l-16.19-8.9-8.86-16.19c-4.72-8.89-17.92-8.88-22.64,0L419.8,66.33l-16.19,8.85C394.72,79.9,394.73,93.1,403.61,97.82Zm23.92-18.63a12.92,12.92,0,0,0,5.13-5.13L440,60.73l7.31,13.37a13,13,0,0,0,5.13,5.13l13.37,7.31-13.36,7.31A12.88,12.88,0,0,0,447.31,99L440,112.31l-7.31-13.37a12.92,12.92,0,0,0-5.13-5.13L414.19,86.5Z" transform="translate(0)"/><path d="M34.85,219.47,50.42,228l8.52,15.57c4.66,8.76,17.67,8.76,22.32,0L89.78,228l15.57-8.52c8.76-4.65,8.76-17.66,0-22.32h0l-15.57-8.52-8.52-15.57a12.73,12.73,0,0,0-22.32,0l-8.51,15.57-15.58,8.52c-8.76,4.66-8.75,17.67,0,22.32Zm23.36-18a12.65,12.65,0,0,0,5-5.05l6.84-12.51,6.84,12.5A12.7,12.7,0,0,0,82,201.47l12.5,6.84L82,215.15a12.7,12.7,0,0,0-5.06,5.06L70.1,232.73l-6.84-12.51a12.68,12.68,0,0,0-5-5.06L45.7,208.31Z" transform="translate(0)"/><path d="M511.25,423.63a22.56,22.56,0,0,0-25.42-16.55l-7.64-26.71a11.52,11.52,0,0,0-14.12-7.92l-25,6.93A7.5,7.5,0,1,0,442.64,394l.43-.12,21.68-6,6.52,22.9-195.83,50c-.55.14-1.09.31-1.63.49l-7.63-18.4,143.16-39.65a7.5,7.5,0,0,0-4-14.45L332.9,408.78l116.34-56.61c8.77-4.66,2.51-17.52-6.56-13.49L319.5,398.62l91.6-69.34a7.52,7.52,0,0,0-9.06-12h0L256,427.88,110,317.32a7.5,7.5,0,1,0-9,12l91.59,69.34L69.34,338.73c-9.08-4-15.34,8.84-6.57,13.49l116.34,56.61L47.93,372.45a11.52,11.52,0,0,0-14.12,7.92l-7.65,26.71A22.57,22.57,0,0,0,.75,423.63C-2.51,435.27,5.19,448.2,17,451l17.79,4.54A7.5,7.5,0,0,0,38.5,441l-17.79-4.54A7.5,7.5,0,0,1,16.09,433a7.34,7.34,0,0,1-.79-5.59A7.53,7.53,0,0,1,24.47,422l208.4,53.23a7.44,7.44,0,0,1,5.64,7.2c1,23.15,34.07,23.14,35,0a7.44,7.44,0,0,1,5.64-7.2L487.55,422a7.53,7.53,0,0,1,9.17,5.35,7.25,7.25,0,0,1-.79,5.59,7.48,7.48,0,0,1-4.61,3.45l-199,50.83a7.49,7.49,0,0,0-5.28,5c-9.69,29.92-52.41,29.9-62.08,0a7.49,7.49,0,0,0-5.29-5L72.85,449.73a7.5,7.5,0,1,0-3.71,14.54l143,36.53c16.1,38.43,71.59,38.41,87.68,0L495,451c11.78-2.75,19.48-15.68,16.22-27.32ZM40.73,410.73l6.54-22.88,198.55,55-7.63,18.4c-.54-.18-1.08-.35-1.63-.49ZM256,484.91a2.49,2.49,0,0,1-2.52-2.45,22.33,22.33,0,0,0-3.14-11.4L256,457.43l5.66,13.63a22.33,22.33,0,0,0-3.14,11.4,2.49,2.49,0,0,1-2.52,2.45Z" transform="translate(0)"/><image class="cls-6" width="512" height="512" transform="translate(77.27) scale(0.66)" xlink:href="150164edc7f28a716bfceae9dd58cf2c-coolface-trollface-meme-by-vexels.png"/></svg>